<?xml version="1.0" encoding="utf-8"?>
<!-- Generator: Adobe Illustrator 24.1.2, SVG Export Plug-In . SVG Version: 6.00 Build 0)  -->
<svg version="1.1" xmlns="http://www.w3.org/2000/svg" xmlns:xlink="http://www.w3.org/1999/xlink" x="0px" y="0px"
	 viewBox="0 0 750 500" style="enable-background:new 0 0 750 500;" xml:space="preserve">
<style type="text/css">
	.st0{fill-rule:evenodd;clip-rule:evenodd;fill:#F0EEF6;}
	.st1{fill-rule:evenodd;clip-rule:evenodd;fill:#6354A1;}
	.st2{fill-rule:evenodd;clip-rule:evenodd;fill:#7A72B3;}
	.st3{fill-rule:evenodd;clip-rule:evenodd;fill:#242B5C;}
	.st4{fill-rule:evenodd;clip-rule:evenodd;fill:#0C1332;}
	.st5{fill-rule:evenodd;clip-rule:evenodd;fill:#F3C4D2;}
	.st6{fill-rule:evenodd;clip-rule:evenodd;fill:#EF92A3;}
	.st7{fill-rule:evenodd;clip-rule:evenodd;fill:#FFFFFF;}
	.st8{fill-rule:evenodd;clip-rule:evenodd;fill:#DCD7EB;}
	.st9{fill-rule:evenodd;clip-rule:evenodd;fill:#E85D96;}
	.st10{fill-rule:evenodd;clip-rule:evenodd;fill:#DD4586;}
	.st11{fill-rule:evenodd;clip-rule:evenodd;fill:#ED859C;}
	.st12{fill-rule:evenodd;clip-rule:evenodd;fill:#EBA1BD;}
	.st13{fill-rule:evenodd;clip-rule:evenodd;fill:#1A274C;}
	.st14{fill-rule:evenodd;clip-rule:evenodd;fill:#6154A1;}
	.st15{fill-rule:evenodd;clip-rule:evenodd;fill:#746AAE;}
	.st16{fill-rule:evenodd;clip-rule:evenodd;fill:#3C2C86;}
	.st17{fill-rule:evenodd;clip-rule:evenodd;fill:#DDB1CD;}
	.st18{fill-rule:evenodd;clip-rule:evenodd;fill:#E14F8C;}
	.st19{fill-rule:evenodd;clip-rule:evenodd;fill:#F7DDE5;}
	.st20{fill-rule:evenodd;clip-rule:evenodd;fill:#695FA7;}
	.st21{fill-rule:evenodd;clip-rule:evenodd;fill:#F1ABBB;}
</style>
<g id="BACKGROUND">
</g>
<g id="OBJECTS">
	<g>
		<path class="st0" d="M590.92,437.94c156.55-123.94-26.29-258.63-103.56-176.01c77.9-266.35-407.84-286.69-297.74-3.91
			c0,0-186.41,6.26-72.49,170.54L590.92,437.94L590.92,437.94z M147.7,189.96c8.89,43.78-25.36,65.92-50.19,66.58
			c-15.64,0.42-23.91-8.23-24.87-18.59c-1.84-19.78,14.56-27.37,30.06-31.66c7.98-2.21,15.85-5.29,18.98-14.48
			C128.58,171.54,142.75,165.6,147.7,189.96L147.7,189.96z M607.74,431.98c0,0,57.82-31.78,53.09-104.15c0,0-0.17-1.86,1.1-1.94
			c1.27-0.08,21.39,58.33-21.22,101.61L607.74,431.98z"/>
		<g>
			<rect x="300.08" y="245.75" class="st1" width="17.5" height="171.89"/>
			<path class="st2" d="M328.32,424.19h-38.98c-3.6,0-6.55-2.95-6.55-6.55l0,0c0-3.6,2.95-6.55,6.55-6.55h38.98
				c3.6,0,6.55,2.95,6.55,6.55l0,0C334.87,421.24,331.92,424.19,328.32,424.19z"/>
			<path class="st1" d="M338.63,433.78h-59.61c-4.44,0-8.07-3.63-8.07-8.07l0,0c0-4.44,3.63-8.07,8.07-8.07h59.61
				c4.44,0,8.07,3.63,8.07,8.07l0,0C346.7,430.15,343.07,433.78,338.63,433.78z"/>
			<path class="st2" d="M385.92,169.25v-63.57H231.06l0,0c-26.04,0-47.34,21.3-47.34,47.34v27.05v46.66v16.23
				c0,5.95,4.87,10.82,10.82,10.82h227.9c5.95,0,10.82-4.87,10.82-10.82v-62.89c0-5.95-4.87-10.82-10.82-10.82H385.92z"/>
			<path class="st1" d="M278.89,105.68h-47.83l0,0c-26.04,0-47.34,21.3-47.34,47.34v27.05v8.39h88.27c3.79,0,6.9-3.1,6.9-6.9V105.68
				z"/>
			<path class="st3" d="M312.75,260.63h4.32c0.17,0,0.34,0.01,0.5,0.02v-6.87h-17.5V411.1h6.09V267.21
				C306.17,263.59,309.13,260.63,312.75,260.63z"/>
			<path class="st1" d="M309.97,229.86H196.54h-12.82v13.1c0,5.95,4.87,10.82,10.82,10.82h9.7h95.84h17.5h14.03h73.04
				c5.95,0,10.82-4.87,10.82-10.82v-73.71h-29.55v-60.07c-5.5-2.25-11.51-3.49-17.79-3.49c-26.04,0-47.34,21.3-47.34,47.34v66.02
				C320.79,224.99,315.92,229.86,309.97,229.86z"/>
			<path class="st3" d="M433.26,153.02c0-26.04-21.3-47.34-47.34-47.34l0,0c-26.04,0-47.34,21.3-47.34,47.34
				c0,29.98,0,59.96,0,89.94c0,5.95,4.87,10.82,10.82,10.82h73.04c5.95,0,10.82-4.87,10.82-10.82
				C433.26,212.98,433.26,183,433.26,153.02z"/>
			<path class="st4" d="M342.04,135.31c-2.23,5.48-3.46,11.46-3.46,17.71c0,29.98,0,59.96,0,89.94c0,5.95,4.87,10.82,10.82,10.82
				h61.9c5.5,0,9.99-4.5,9.99-9.99c0-27.69,0-55.38,0-83.07c0-24.05-19.68-43.72-43.72-43.72l0,0
				C362.98,116.99,349.99,124.24,342.04,135.31z"/>
		</g>
		<g>
			<path class="st5" d="M100.17,63.26h166.11c3.79,0,6.9,3.1,6.9,6.9v105.96c0,3.79-3.1,6.9-6.9,6.9H100.17c-3.79,0-6.9-3.1-6.9-6.9
				V70.16C93.27,66.36,96.37,63.26,100.17,63.26z"/>
			<path class="st6" d="M126.04,183.01h-25.87c-3.79,0-6.9-3.1-6.9-6.9V72.98h32.77V183.01z"/>
			<path class="st2" d="M100.17,63.26h166.11c3.79,0,6.9,3.1,6.9,6.9v7.73H93.27v-7.73C93.27,66.36,96.37,63.26,100.17,63.26z"/>
			<circle class="st7" cx="101" cy="70.57" r="2.21"/>
			<path class="st7" d="M109.07,72.78c1.21,0,2.21-0.99,2.21-2.21c0-1.22-0.99-2.21-2.21-2.21c-1.22,0-2.21,0.99-2.21,2.21
				C106.86,71.79,107.85,72.78,109.07,72.78z"/>
			<circle class="st7" cx="117.14" cy="70.57" r="2.21"/>
			<path class="st7" d="M100.07,106.23h19.18c0.57,0,1.03,0.47,1.03,1.03v0c0,0.57-0.47,1.03-1.03,1.03h-19.18
				c-0.57,0-1.04-0.46-1.04-1.03v0C99.03,106.7,99.5,106.23,100.07,106.23z"/>
			<path class="st7" d="M100.07,110.79h10.86c0.57,0,1.03,0.47,1.03,1.03v0c0,0.57-0.47,1.03-1.03,1.03h-10.86
				c-0.57,0-1.04-0.47-1.04-1.03v0C99.03,111.25,99.5,110.79,100.07,110.79z"/>
			<path class="st7" d="M100.07,119.96h19.18c0.57,0,1.03,0.47,1.03,1.03v0c0,0.57-0.47,1.03-1.03,1.03h-19.18
				c-0.57,0-1.04-0.47-1.04-1.03v0C99.03,120.42,99.5,119.96,100.07,119.96z"/>
			<path class="st7" d="M100.07,124.51h10.86c0.57,0,1.03,0.47,1.03,1.03v0c0,0.57-0.47,1.04-1.03,1.04h-10.86
				c-0.57,0-1.04-0.47-1.04-1.04v0C99.03,124.98,99.5,124.51,100.07,124.51z"/>
			<path class="st7" d="M114.62,124.51h1.59c0.57,0,1.03,0.47,1.03,1.03v0c0,0.57-0.47,1.04-1.03,1.04h-1.59
				c-0.57,0-1.04-0.47-1.04-1.04v0C113.59,124.98,114.05,124.51,114.62,124.51z"/>
			<path class="st7" d="M100.07,137.07h9.76c0.57,0,1.03-0.47,1.03-1.03v0c0-0.57-0.47-1.03-1.03-1.03h-9.76
				c-0.57,0-1.04,0.47-1.04,1.03v0C99.03,136.6,99.5,137.07,100.07,137.07z"/>
			<path class="st7" d="M100.07,132.51h13.48c0.57,0,1.03-0.47,1.03-1.03v0c0-0.57-0.46-1.03-1.03-1.03h-13.48
				c-0.57,0-1.04,0.47-1.04,1.03v0C99.03,132.05,99.5,132.51,100.07,132.51z"/>
			<path class="st7" d="M117.57,132.51h2.33c0.57,0,1.03-0.47,1.03-1.03v0c0-0.57-0.46-1.03-1.03-1.03h-2.33
				c-0.57,0-1.04,0.47-1.04,1.03v0C116.54,132.05,117,132.51,117.57,132.51z"/>
			<path class="st7" d="M100.07,141.83h6.45c0.57,0,1.03-0.47,1.03-1.03v0c0-0.57-0.47-1.03-1.03-1.03h-6.45
				c-0.57,0-1.04,0.46-1.04,1.03v0C99.03,141.36,99.5,141.83,100.07,141.83z"/>
			<path class="st7" d="M100.07,146.38h14.31c0.57,0,1.03-0.47,1.03-1.03v0c0-0.57-0.47-1.03-1.03-1.03h-14.31
				c-0.57,0-1.04,0.46-1.04,1.03v0C99.03,145.91,99.5,146.38,100.07,146.38z"/>
			<path class="st7" d="M146.83,99.75h108.06c0.57,0,1.04,0.47,1.04,1.03v0c0,0.57-0.47,1.04-1.04,1.04H146.83
				c-0.57,0-1.03-0.47-1.03-1.04v0C145.8,100.21,146.27,99.75,146.83,99.75z"/>
			<path class="st7" d="M137.35,102.51c0.95,0,1.72-0.77,1.72-1.72c0-0.95-0.77-1.72-1.72-1.72c-0.95,0-1.73,0.77-1.73,1.72
				C135.62,101.73,136.4,102.51,137.35,102.51z"/>
			<path class="st7" d="M146.83,108.58h108.06c0.57,0,1.04,0.47,1.04,1.03v0c0,0.57-0.47,1.03-1.04,1.03H146.83
				c-0.57,0-1.03-0.46-1.03-1.03v0C145.8,109.04,146.27,108.58,146.83,108.58z"/>
			<path class="st7" d="M137.35,111.34c0.95,0,1.72-0.77,1.72-1.72c0-0.95-0.77-1.72-1.72-1.72c-0.95,0-1.73,0.77-1.73,1.72
				C135.62,110.56,136.4,111.34,137.35,111.34z"/>
			<path class="st7" d="M146.83,117.41h108.06c0.57,0,1.04,0.47,1.04,1.03v0c0,0.57-0.47,1.03-1.04,1.03H146.83
				c-0.57,0-1.03-0.47-1.03-1.03v0C145.8,117.87,146.27,117.41,146.83,117.41z"/>
			<path class="st7" d="M137.35,120.17c0.95,0,1.72-0.77,1.72-1.72s-0.77-1.72-1.72-1.72c-0.95,0-1.73,0.77-1.73,1.72
				S136.4,120.17,137.35,120.17z"/>
			<path class="st7" d="M146.83,126.24h108.06c0.57,0,1.04,0.47,1.04,1.03v0c0,0.57-0.47,1.03-1.04,1.03H146.83
				c-0.57,0-1.03-0.47-1.03-1.03v0C145.8,126.7,146.27,126.24,146.83,126.24z"/>
			<path class="st7" d="M137.35,129c0.95,0,1.72-0.77,1.72-1.72c0-0.95-0.77-1.72-1.72-1.72c-0.95,0-1.73,0.78-1.73,1.72
				C135.62,128.22,136.4,129,137.35,129z"/>
			<path class="st7" d="M146.83,135.07h108.06c0.57,0,1.04,0.47,1.04,1.03v0c0,0.57-0.47,1.03-1.04,1.03H146.83
				c-0.57,0-1.03-0.47-1.03-1.03v0C145.8,135.53,146.27,135.07,146.83,135.07z"/>
			<path class="st7" d="M137.35,137.83c0.95,0,1.72-0.77,1.72-1.72c0-0.95-0.77-1.72-1.72-1.72c-0.95,0-1.73,0.77-1.73,1.72
				C135.62,137.05,136.4,137.83,137.35,137.83z"/>
			<path class="st7" d="M146.83,143.9h108.06c0.57,0,1.04,0.47,1.04,1.03v0c0,0.57-0.47,1.03-1.04,1.03H146.83
				c-0.57,0-1.03-0.47-1.03-1.03v0C145.8,144.36,146.27,143.9,146.83,143.9z"/>
			<path class="st7" d="M137.35,146.65c0.95,0,1.72-0.78,1.72-1.72c0-0.95-0.77-1.72-1.72-1.72c-0.95,0-1.73,0.77-1.73,1.72
				C135.62,145.88,136.4,146.65,137.35,146.65z"/>
			<path class="st7" d="M146.83,152.72h108.06c0.57,0,1.04,0.47,1.04,1.03v0c0,0.57-0.47,1.03-1.04,1.03H146.83
				c-0.57,0-1.03-0.47-1.03-1.03v0C145.8,153.19,146.27,152.72,146.83,152.72z"/>
			<path class="st7" d="M137.35,155.48c0.95,0,1.72-0.77,1.72-1.72c0-0.95-0.77-1.72-1.72-1.72c-0.95,0-1.73,0.77-1.73,1.72
				C135.62,154.71,136.4,155.48,137.35,155.48z"/>
			<path class="st7" d="M146.83,161.55h108.06c0.57,0,1.04,0.47,1.04,1.03v0c0,0.57-0.47,1.03-1.04,1.03H146.83
				c-0.57,0-1.03-0.47-1.03-1.03v0C145.8,162.02,146.27,161.55,146.83,161.55z"/>
			<path class="st7" d="M137.35,164.31c0.95,0,1.72-0.77,1.72-1.72c0-0.95-0.77-1.72-1.72-1.72c-0.95,0-1.73,0.77-1.73,1.72
				C135.62,163.54,136.4,164.31,137.35,164.31z"/>
			<path class="st7" d="M137.69,84.57h80.16c1.14,0,2.07,0.93,2.07,2.07v0c0,1.14-0.93,2.07-2.07,2.07h-80.16
				c-1.14,0-2.07-0.93-2.07-2.07v0C135.62,85.5,136.55,84.57,137.69,84.57z"/>
			<path class="st7" d="M226.95,84.57h26.9c1.14,0,2.07,0.93,2.07,2.07v0c0,1.14-0.93,2.07-2.07,2.07h-26.9
				c-1.14,0-2.07-0.93-2.07-2.07v0C224.89,85.5,225.82,84.57,226.95,84.57z"/>
			
				<ellipse transform="matrix(1 -6.666592e-03 6.666592e-03 1 -0.6086 0.7331)" class="st7" cx="109.65" cy="91.66" rx="8.45" ry="8.45"/>
			<path class="st2" d="M114.03,97.2c-1.2,0.95-2.72,1.52-4.37,1.52c-1.65,0-3.17-0.57-4.37-1.52c0.08-2.34,2.01-4.23,4.37-4.23l0,0
				C112.01,92.97,113.95,94.86,114.03,97.2L114.03,97.2z M109.65,85.65c1.74,0,3.14,1.41,3.14,3.14c0,1.73-1.4,3.14-3.14,3.14
				c-1.74,0-3.14-1.41-3.14-3.14C106.51,87.05,107.92,85.65,109.65,85.65z"/>
		</g>
		<path class="st8" d="M587.73,196.58L587.73,196.58L587.73,196.58z M584.12,182.86c-1.25-1.25-2.99-2.03-4.9-2.03
			c-1.91,0-3.65,0.78-4.9,2.03c-1.26,1.25-2.03,2.99-2.03,4.9c0,1.91,0.77,3.65,2.03,4.9c1.25,1.25,2.99,2.03,4.9,2.03
			c1.91,0,3.65-0.78,4.9-2.03c1.25-1.25,2.03-2.99,2.03-4.9C586.15,185.85,585.38,184.12,584.12,182.86L584.12,182.86z
			 M582.63,175.99c0.96,0.28,1.87,0.67,2.72,1.16c0.87,0.5,1.67,1.11,2.38,1.8c0.14,0.13,0.35,0.15,0.51,0.06l3.22-1.86l0.02-0.01
			c0.18-0.1,0.39-0.12,0.59-0.07c0.2,0.05,0.38,0.18,0.49,0.37l0.01,0.02l2.26,3.92c0.11,0.19,0.13,0.41,0.08,0.61
			c-0.05,0.2-0.18,0.38-0.37,0.49l-0.02,0.01l-3.19,1.84c-0.17,0.1-0.25,0.29-0.2,0.47v0c0.12,0.48,0.21,0.96,0.27,1.46
			c0.06,0.49,0.09,0.99,0.09,1.49c0,0.51-0.03,1.01-0.09,1.49c-0.06,0.5-0.15,0.99-0.27,1.46c-0.05,0.2,0.05,0.4,0.22,0.48
			l3.19,1.84l0,0c0.19,0.11,0.32,0.29,0.37,0.48c0.05,0.2,0.03,0.42-0.08,0.61l-2.28,3.95l0,0c-0.11,0.19-0.29,0.32-0.48,0.37
			c-0.2,0.05-0.42,0.03-0.61-0.08l-0.02-0.01l-3.2-1.85c-0.17-0.1-0.37-0.07-0.51,0.06c-0.72,0.69-1.52,1.3-2.38,1.8
			c-0.85,0.49-1.77,0.88-2.73,1.16c-0.19,0.05-0.31,0.22-0.31,0.41v3.72c0,0.22-0.09,0.42-0.24,0.56c-0.14,0.14-0.34,0.23-0.56,0.23
			h-4.56c-0.22,0-0.42-0.09-0.56-0.23c-0.14-0.14-0.24-0.34-0.24-0.56v-3.72c0-0.2-0.14-0.37-0.33-0.41
			c-0.96-0.28-1.87-0.67-2.72-1.16c-0.87-0.5-1.67-1.11-2.38-1.8c-0.15-0.14-0.37-0.16-0.53-0.05l-3.2,1.85
			c-0.19,0.11-0.41,0.13-0.61,0.08c-0.2-0.05-0.38-0.18-0.49-0.37l-0.01-0.02l-2.27-3.93l0,0c-0.11-0.19-0.13-0.41-0.08-0.61
			c0.05-0.2,0.18-0.38,0.37-0.48l3.22-1.86c0.17-0.1,0.25-0.29,0.2-0.47h0c-0.12-0.48-0.21-0.96-0.27-1.46
			c-0.06-0.49-0.09-0.99-0.09-1.49c0-0.51,0.03-1.01,0.09-1.49c0.06-0.5,0.15-0.99,0.27-1.46c0.05-0.2-0.05-0.4-0.22-0.48l-3.2-1.84
			c-0.19-0.11-0.31-0.29-0.37-0.49c-0.05-0.2-0.03-0.42,0.08-0.6l0.01-0.02l2.27-3.92v0c0.11-0.19,0.29-0.32,0.49-0.37
			c0.2-0.05,0.42-0.03,0.6,0.08l0,0l3.22,1.86c0.17,0.1,0.38,0.07,0.52-0.07c0.71-0.69,1.51-1.29,2.38-1.79
			c0.85-0.49,1.77-0.88,2.73-1.16c0.19-0.05,0.31-0.22,0.31-0.41v-3.72c0-0.22,0.09-0.42,0.24-0.56c0.14-0.14,0.34-0.23,0.56-0.23
			h4.56c0.22,0,0.42,0.09,0.56,0.23c0.15,0.14,0.24,0.34,0.24,0.56v3.72C582.3,175.78,582.44,175.95,582.63,175.99z"/>
		<path class="st8" d="M662.31,178.32c-1.38-1.38-3.03-2.49-4.87-3.26c-1.77-0.73-3.71-1.14-5.74-1.14c-2.03,0-3.96,0.4-5.74,1.14
			c-1.84,0.76-3.49,1.88-4.87,3.26c-1.38,1.38-2.5,3.03-3.26,4.87c-0.73,1.77-1.14,3.71-1.14,5.73c0,2.03,0.41,3.96,1.14,5.73
			c0.76,1.84,1.88,3.49,3.26,4.87c1.38,1.38,3.03,2.49,4.87,3.26c1.77,0.73,3.71,1.14,5.74,1.14c2.03,0,3.96-0.4,5.74-1.14
			c1.84-0.76,3.49-1.88,4.87-3.26c1.38-1.38,2.49-3.03,3.26-4.87c0.73-1.77,1.14-3.71,1.14-5.73c0-2.03-0.41-3.97-1.14-5.73
			C664.81,181.35,663.69,179.7,662.31,178.32L662.31,178.32z M656.91,176.35c1.66,0.69,3.16,1.7,4.42,2.96
			c1.26,1.26,2.27,2.76,2.96,4.42c0.66,1.6,1.03,3.36,1.03,5.21c0,1.85-0.37,3.61-1.03,5.21c-0.69,1.66-1.7,3.16-2.96,4.42
			c-1.26,1.26-2.76,2.27-4.42,2.96c-1.6,0.66-3.36,1.03-5.21,1.03c-1.85,0-3.6-0.37-5.21-1.03c-1.66-0.69-3.16-1.7-4.42-2.96
			c-1.26-1.26-2.27-2.76-2.96-4.42c-0.66-1.6-1.03-3.36-1.03-5.21c0-1.85,0.37-3.61,1.03-5.21c0.69-1.66,1.7-3.16,2.96-4.42
			c1.26-1.26,2.76-2.27,4.42-2.96c1.6-0.66,3.36-1.03,5.21-1.03C653.55,175.32,655.31,175.68,656.91,176.35L656.91,176.35z
			 M658.57,165.31c0.94,0.27,1.86,0.6,2.77,0.99c0.92,0.39,1.8,0.83,2.65,1.33c0.87,0.5,1.7,1.06,2.5,1.66
			c0.8,0.61,1.57,1.26,2.29,1.95c0.25,0.24,0.57,0.39,0.9,0.43c0.33,0.04,0.68-0.03,0.98-0.2c2.2-1.27,4.52-2.53,6.68-3.86
			c0.11-0.06,0.22-0.09,0.32-0.1c0.12-0.01,0.25,0,0.37,0.03c0.12,0.03,0.24,0.09,0.34,0.16c0.1,0.07,0.18,0.17,0.24,0.28
			c1.61,2.43,3.22,5.57,4.71,8.15c0.06,0.11,0.1,0.23,0.12,0.35c0.02,0.12,0,0.25-0.03,0.38c-0.03,0.12-0.09,0.24-0.16,0.34
			c-0.07,0.1-0.17,0.18-0.28,0.24c-1.98,1.31-4.54,2.62-6.64,3.84c-0.31,0.18-0.53,0.44-0.66,0.74c-0.04,0.1-0.08,0.21-0.1,0.33
			l-0.14,0.05l0.15,0.62c0.12,0.49,0.23,0.97,0.31,1.46c0.09,0.47,0.16,0.97,0.22,1.48c0.06,0.5,0.11,1,0.14,1.49
			c0.03,0.48,0.04,0.98,0.04,1.51c0,0.52-0.01,1.03-0.04,1.51c-0.03,0.49-0.08,0.99-0.14,1.49c-0.06,0.51-0.14,1.01-0.22,1.48
			c-0.09,0.48-0.19,0.97-0.31,1.46c-0.09,0.36-0.05,0.72,0.1,1.04c0.14,0.31,0.39,0.57,0.71,0.74l5.88,3.39l0,0l0.7,0.4
			c0.11,0.06,0.2,0.15,0.28,0.24c0.08,0.1,0.13,0.21,0.16,0.34c0.03,0.13,0.04,0.26,0.03,0.38c-0.02,0.12-0.05,0.24-0.12,0.35
			l-4.35,7.54l0,0l-0.35,0.61c-0.06,0.11-0.15,0.2-0.24,0.28c-0.1,0.08-0.21,0.13-0.34,0.16c-0.12,0.03-0.25,0.04-0.38,0.03
			c-0.12-0.02-0.23-0.05-0.34-0.12c-2.1-1.32-4.48-2.59-6.65-3.84c-0.31-0.18-0.65-0.24-0.97-0.2c-0.33,0.04-0.65,0.19-0.9,0.43l0,0
			c-0.72,0.69-1.48,1.35-2.29,1.95c-0.8,0.6-1.63,1.16-2.5,1.66c-0.86,0.5-1.75,0.94-2.67,1.33c-0.91,0.38-1.85,0.72-2.81,1
			c-0.34,0.1-0.62,0.3-0.82,0.56c-0.2,0.27-0.32,0.6-0.32,0.95l0,7.67c0,0.13-0.03,0.25-0.07,0.36c-0.05,0.11-0.12,0.22-0.21,0.31
			c-0.09,0.09-0.19,0.16-0.31,0.21c-0.11,0.05-0.23,0.07-0.36,0.07H647c-0.13,0-0.25-0.03-0.36-0.07c-0.12-0.05-0.22-0.12-0.31-0.21
			c-0.09-0.09-0.16-0.2-0.21-0.31c-0.05-0.11-0.07-0.23-0.07-0.36v-7.67c0-0.36-0.13-0.7-0.34-0.97c-0.22-0.28-0.52-0.48-0.87-0.56
			c-0.94-0.27-1.86-0.6-2.76-0.98c-0.92-0.39-1.8-0.83-2.66-1.33c-0.87-0.5-1.7-1.05-2.5-1.66c-0.8-0.61-1.57-1.26-2.29-1.95
			c-0.27-0.26-0.6-0.4-0.95-0.43c-0.35-0.03-0.71,0.05-1.01,0.25l-6.57,3.79c-0.11,0.06-0.23,0.1-0.35,0.12
			c-0.12,0.02-0.25,0.01-0.38-0.03c-0.12-0.03-0.24-0.09-0.34-0.16c-0.1-0.07-0.18-0.17-0.24-0.28c-1.56-2.72-3.14-5.43-4.71-8.15
			c-0.06-0.11-0.1-0.23-0.12-0.35c-0.01-0.12,0-0.25,0.03-0.38c0.03-0.12,0.09-0.24,0.17-0.34c0.07-0.1,0.16-0.18,0.27-0.24
			l6.64-3.84c0.31-0.18,0.53-0.44,0.66-0.74c0.03-0.08,0.06-0.17,0.08-0.25l0.17-0.03l-0.17-0.7c-0.12-0.49-0.23-0.97-0.32-1.46
			c-0.09-0.47-0.16-0.97-0.22-1.48c-0.06-0.5-0.11-1-0.14-1.49c-0.03-0.48-0.04-0.98-0.04-1.51c0-0.52,0.01-1.03,0.04-1.51
			c0.03-0.49,0.08-0.99,0.14-1.49c0.06-0.52,0.14-1.02,0.22-1.48c0.09-0.48,0.19-0.97,0.32-1.46c0.09-0.36,0.04-0.73-0.1-1.04
			c-0.15-0.31-0.39-0.57-0.71-0.73l-6.58-3.8c-0.11-0.06-0.2-0.14-0.27-0.24c-0.08-0.1-0.13-0.21-0.17-0.34
			c-0.03-0.13-0.04-0.25-0.03-0.38c0.02-0.12,0.05-0.24,0.12-0.35c1.61-2.39,3.21-5.58,4.71-8.15c0.06-0.11,0.15-0.2,0.24-0.28
			c0.1-0.08,0.21-0.13,0.34-0.16c0.12-0.03,0.25-0.04,0.38-0.03c0.12,0.01,0.23,0.05,0.35,0.12l6.65,3.84c0.31,0.18,0.66,0.24,1,0.2
			c0.34-0.05,0.65-0.2,0.9-0.44c0.72-0.69,1.48-1.34,2.28-1.94c0.79-0.59,1.62-1.15,2.49-1.65c0.86-0.5,1.75-0.94,2.67-1.33
			c0.91-0.39,1.85-0.72,2.81-1c0.34-0.1,0.63-0.3,0.82-0.57c0.2-0.27,0.32-0.6,0.32-0.95l0-7.67c0-0.13,0.03-0.25,0.07-0.36
			c0.05-0.11,0.12-0.22,0.21-0.31c0.09-0.09,0.19-0.16,0.31-0.21c0.11-0.05,0.23-0.07,0.36-0.07h9.41c0.13,0,0.25,0.02,0.36,0.07
			c0.12,0.05,0.22,0.12,0.31,0.21c0.17,0.17,0.28,0.41,0.28,0.67v7.67c0,0.37,0.13,0.71,0.34,0.97
			C657.92,165.02,658.22,165.22,658.57,165.31L658.57,165.31z M661.88,165.02c0.97,0.41,1.9,0.88,2.81,1.4
			c0.92,0.53,1.8,1.12,2.64,1.75c0.84,0.64,1.65,1.32,2.41,2.06c0.03,0.03,0.07,0.04,0.1,0.05c0.04,0,0.08,0,0.12-0.02
			c2.23-1.29,4.47-2.57,6.7-3.87c0.26-0.14,0.55-0.23,0.84-0.26c0.3-0.03,0.6-0.01,0.88,0.07c0.29,0.08,0.57,0.22,0.82,0.4
			c0.24,0.18,0.44,0.41,0.6,0.68c1.62,2.62,3.16,5.46,4.71,8.15c0.16,0.27,0.25,0.57,0.29,0.87c0.04,0.31,0.02,0.62-0.06,0.91
			c-0.08,0.29-0.22,0.57-0.41,0.82c-0.18,0.24-0.41,0.44-0.68,0.6c-2.14,1.32-4.46,2.57-6.64,3.84c-0.03,0.02-0.06,0.05-0.07,0.09
			c-0.02,0.04-0.02,0.08-0.01,0.12l0.15,0.62l-0.01,0c0.07,0.3,0.13,0.61,0.19,0.92c0.1,0.53,0.18,1.05,0.24,1.57
			c0.06,0.51,0.11,1.03,0.14,1.57c0.03,0.54,0.05,1.07,0.05,1.59c0,0.52-0.02,1.05-0.05,1.59c-0.03,0.54-0.08,1.07-0.14,1.58
			c-0.06,0.51-0.14,1.04-0.24,1.57c-0.1,0.53-0.21,1.04-0.33,1.54c-0.01,0.04-0.01,0.08,0.01,0.12c0.02,0.04,0.05,0.07,0.08,0.09
			c2.44,1.3,4.92,2.84,7.33,4.23l-0.09,0.11l0.07,0.09c0.19,0.25,0.33,0.53,0.41,0.82c0.08,0.29,0.1,0.6,0.06,0.91
			c-0.04,0.3-0.13,0.59-0.29,0.87l-5.06,8.76l-0.09-0.06c-0.05,0.05-0.1,0.09-0.16,0.13c-0.25,0.19-0.53,0.32-0.82,0.4
			c-0.29,0.08-0.6,0.1-0.91,0.06c-0.29-0.04-0.58-0.13-0.84-0.28c-2.21-1.17-4.49-2.59-6.67-3.85c-0.03-0.02-0.07-0.02-0.11-0.02
			c-0.04,0-0.08,0.02-0.11,0.05c-0.76,0.73-1.57,1.42-2.41,2.06c-0.84,0.63-1.72,1.22-2.64,1.75c-0.91,0.52-1.85,1-2.83,1.41
			c-0.97,0.41-1.96,0.76-2.98,1.06c-0.04,0.01-0.07,0.04-0.1,0.07c-0.03,0.03-0.04,0.07-0.04,0.11v7.67c0,0.31-0.06,0.62-0.18,0.89
			c-0.12,0.29-0.29,0.55-0.51,0.76c-0.21,0.22-0.47,0.39-0.76,0.51c-0.28,0.12-0.58,0.18-0.89,0.18H647c-0.31,0-0.62-0.06-0.89-0.18
			c-0.28-0.12-0.54-0.29-0.76-0.51c-0.21-0.21-0.39-0.47-0.51-0.76c-0.12-0.28-0.18-0.58-0.18-0.89v-7.67
			c0-0.05-0.01-0.09-0.04-0.12c-0.02-0.03-0.06-0.05-0.1-0.06l-0.03-0.01c-1.02-0.29-2.01-0.65-2.96-1.05
			c-0.97-0.41-1.9-0.88-2.81-1.4c-0.92-0.53-1.8-1.12-2.64-1.75c-0.84-0.64-1.65-1.32-2.41-2.06c-0.03-0.03-0.07-0.05-0.11-0.05
			c-0.04,0-0.08,0.01-0.12,0.03l-6.64,3.83c-0.27,0.16-0.57,0.25-0.86,0.29c-0.31,0.04-0.62,0.02-0.91-0.06
			c-0.29-0.08-0.57-0.21-0.82-0.4c-0.23-0.18-0.43-0.4-0.59-0.66c-1.74-2.81-3.39-5.88-5.06-8.76l0.09-0.05
			c-0.02-0.07-0.03-0.15-0.04-0.22c-0.04-0.31-0.02-0.62,0.06-0.91c0.08-0.29,0.21-0.57,0.4-0.82c0.18-0.24,0.41-0.44,0.68-0.6
			l6.64-3.83c0.03-0.02,0.06-0.05,0.07-0.09c0.02-0.04,0.02-0.08,0.01-0.12l-0.17-0.7l0.01,0c-0.06-0.27-0.12-0.55-0.17-0.83
			c-0.1-0.53-0.18-1.05-0.24-1.57c-0.06-0.51-0.11-1.03-0.14-1.58c-0.03-0.54-0.05-1.07-0.05-1.59c0-0.52,0.02-1.05,0.05-1.59
			c0.03-0.54,0.08-1.07,0.14-1.58c0.06-0.51,0.14-1.03,0.24-1.57c0.1-0.53,0.21-1.04,0.33-1.54c0.01-0.04,0-0.08-0.01-0.12
			c-0.02-0.04-0.05-0.07-0.08-0.09l-6.63-3.83c-0.27-0.16-0.5-0.36-0.68-0.6c-0.19-0.25-0.33-0.53-0.4-0.82
			c-0.08-0.29-0.1-0.6-0.06-0.91c0.04-0.29,0.13-0.58,0.28-0.85c1.58-2.93,3.39-5.88,5.07-8.78l0.09,0.06
			c0.05-0.05,0.1-0.09,0.16-0.13c0.25-0.19,0.53-0.32,0.82-0.4c0.29-0.08,0.6-0.1,0.91-0.06c0.3,0.04,0.59,0.13,0.86,0.29l0.49,0.28
			l0,0l6.16,3.56c0.04,0.02,0.08,0.03,0.12,0.02c0.04-0.01,0.08-0.02,0.11-0.05l0.02-0.02c0.75-0.73,1.56-1.41,2.41-2.05
			c0.84-0.63,1.72-1.22,2.63-1.74c0.91-0.52,1.85-1,2.83-1.41c0.97-0.41,1.96-0.76,2.98-1.06c0.04-0.01,0.07-0.04,0.1-0.06
			c0.03-0.03,0.04-0.07,0.04-0.11v-7.67c0-0.31,0.06-0.62,0.18-0.89c0.12-0.29,0.29-0.55,0.51-0.76c0.21-0.22,0.47-0.39,0.76-0.51
			c0.28-0.12,0.58-0.18,0.89-0.18h9.41c0.31,0,0.62,0.06,0.89,0.18c0.28,0.12,0.54,0.29,0.76,0.51c0.42,0.42,0.69,1.01,0.69,1.65
			v7.67c0,0.04,0.02,0.08,0.04,0.12c0.02,0.03,0.06,0.05,0.1,0.06l0.03,0.01C659.94,164.26,660.93,164.61,661.88,165.02z"/>
		<g>
			<path class="st8" d="M594.28,280.23c15.65,0,28.33,12.68,28.33,28.33c0,15.64-12.68,28.33-28.33,28.33h-57.63
				c-10.09,0-18.27-8.18-18.27-18.27c0-10.09,8.18-18.27,18.27-18.27c2.02,0,3.96,0.33,5.78,0.93c2.61-6.58,9.03-11.23,16.54-11.23
				c4.19,0,8.03,1.45,11.07,3.86C574.99,285.71,584,280.23,594.28,280.23z"/>
			<path class="st8" d="M539.56,343.82h4.48c0.82,0,1.49,0.67,1.49,1.49v4.48c0,0.82-0.67,1.49-1.49,1.49h-4.48
				c-0.82,0-1.49-0.67-1.49-1.49v-4.48C538.07,344.49,538.74,343.82,539.56,343.82z"/>
			<path class="st8" d="M554.87,343.82h4.48c0.82,0,1.49,0.67,1.49,1.49v4.48c0,0.82-0.67,1.49-1.49,1.49h-4.48
				c-0.82,0-1.49-0.67-1.49-1.49v-4.48C553.38,344.49,554.05,343.82,554.87,343.82z"/>
			<path class="st8" d="M570.19,343.82h4.48c0.82,0,1.49,0.67,1.49,1.49v4.48c0,0.82-0.67,1.49-1.49,1.49h-4.48
				c-0.82,0-1.49-0.67-1.49-1.49v-4.48C568.69,344.49,569.37,343.82,570.19,343.82z"/>
			<path class="st8" d="M585.5,343.82h4.48c0.82,0,1.49,0.67,1.49,1.49v4.48c0,0.82-0.67,1.49-1.49,1.49h-4.48
				c-0.82,0-1.49-0.67-1.49-1.49v-4.48C584,344.49,584.68,343.82,585.5,343.82z"/>
		</g>
		<g>
			<path class="st8" d="M225.99,269.45h4.48c0.82,0,1.49,0.67,1.49,1.49v4.48c0,0.82-0.67,1.49-1.49,1.49h-4.48
				c-0.82,0-1.49-0.67-1.49-1.49v-4.48C224.5,270.12,225.17,269.45,225.99,269.45z"/>
			<path class="st8" d="M241.3,269.45h4.48c0.82,0,1.49,0.67,1.49,1.49v4.48c0,0.82-0.67,1.49-1.49,1.49h-4.48
				c-0.82,0-1.49-0.67-1.49-1.49v-4.48C239.81,270.12,240.48,269.45,241.3,269.45z"/>
			<path class="st8" d="M256.61,269.45h4.48c0.82,0,1.49,0.67,1.49,1.49v4.48c0,0.82-0.67,1.49-1.49,1.49h-4.48
				c-0.82,0-1.49-0.67-1.49-1.49v-4.48C255.12,270.12,255.79,269.45,256.61,269.45z"/>
			<path class="st8" d="M271.93,269.45h4.48c0.82,0,1.49,0.67,1.49,1.49v4.48c0,0.82-0.67,1.49-1.49,1.49h-4.48
				c-0.82,0-1.49-0.67-1.49-1.49v-4.48C270.43,270.12,271.1,269.45,271.93,269.45z"/>
		</g>
		<g>
			<g>
				<path class="st9" d="M165.5,254.36c-20.51-20.88-35.77,5.64-33.64,32.27c2.02,25.25,23.78,111.87,19.75,148.31h8.33
					C180.33,388.22,191.76,281.1,165.5,254.36z"/>
				<path class="st10" d="M156.88,434.95c19.84-73.66-5.28-175.47-5.36-175.82c-0.15-0.63-0.79-1.02-1.42-0.87
					c-0.63,0.15-1.02,0.79-0.87,1.42c0.08,0.35,25.23,102.28,5.24,175.26H156.88z"/>
			</g>
			<g>
				<path class="st6" d="M114.9,300.39c-21.61-11.45-27.06,13.53-18.64,34.2c6.98,17.13,37.83,67.8,49.5,100.36h10.99
					C157.68,389.96,140.42,313.9,114.9,300.39z"/>
				<path class="st5" d="M152.73,434.95c-7.15-60.85-47.62-126.99-47.76-127.23c-0.28-0.47-0.89-0.61-1.35-0.33
					c-0.47,0.28-0.61,0.89-0.33,1.35c0.14,0.24,40.35,65.95,47.49,126.21H152.73z"/>
			</g>
			<g>
				<path class="st5" d="M206.25,329.27c20.95-9.15,24.27,14.52,14.96,33.19c-6.3,12.63-28.99,44.98-44.27,72.5H159.5
					C165.47,393.32,184.6,338.73,206.25,329.27z"/>
				<path class="st6" d="M165.73,434.95c14.87-50.43,49.12-97.96,49.26-98.15c0.3-0.41,0.87-0.51,1.28-0.21
					c0.41,0.29,0.51,0.87,0.21,1.28c-0.14,0.19-34.03,47.22-48.86,97.08H165.73z"/>
			</g>
		</g>
		<g>
			<g>
				<path class="st9" d="M394.03,307.88c17.93-14.21,30.09,4.8,27.54,23.48c-2.42,17.71-23.25,78.12-20.86,103.85l-7.05-0.19
					C377.74,401.68,371.08,326.07,394.03,307.88z"/>
				<path class="st10" d="M396.26,435.09c-14.71-52.27,9.39-123.29,9.47-123.53c0.15-0.44,0.7-0.7,1.23-0.58
					c0.53,0.12,0.84,0.58,0.69,1.02c-0.08,0.24-24.21,71.34-9.35,123.14L396.26,435.09z"/>
			</g>
			<g>
				<path class="st6" d="M435.53,341.43c18.6-7.55,22.51,10.15,14.8,24.49c-6.39,11.88-33.9,46.8-44.67,69.43l-9.29-0.26
					C396.84,403.43,413.58,350.34,435.53,341.43z"/>
				<path class="st5" d="M399.76,435.19c7.75-42.63,43.83-88.2,43.96-88.37c0.25-0.32,0.77-0.41,1.15-0.2
					c0.39,0.21,0.49,0.64,0.24,0.96c-0.13,0.16-35.98,45.44-43.7,87.65L399.76,435.19z"/>
			</g>
			<g>
				<path class="st5" d="M357.47,359.61c-17.46-6.92-20.93,9.64-13.58,22.99c4.97,9.03,23.25,32.31,35.4,52.02l14.75,0.41
					C390.17,405.61,375.52,366.77,357.47,359.61z"/>
				<path class="st6" d="M388.77,434.88c-11.16-35.82-38.79-70.04-38.9-70.18c-0.24-0.3-0.72-0.38-1.08-0.18
					c-0.36,0.2-0.46,0.6-0.22,0.9c0.11,0.14,27.45,34,38.6,69.42L388.77,434.88z"/>
			</g>
		</g>
		<path class="st4" d="M78.36,425.71h593.53c3.89,0,7.08,3.19,7.08,7.08v0c0,3.89-3.18,7.08-7.08,7.08h-23.88
			c-2.16,0-3.93,1.77-3.93,3.93v0c0,2.16,1.77,3.93,3.93,3.93h8.74c2.7,0,4.92,2.21,4.92,4.92l0,0c0,2.7-2.21,4.92-4.92,4.92H94.29
			c-2.7,0-4.92-2.21-4.92-4.92l0,0c0-2.7,2.21-4.92,4.92-4.92h6.88c2.16,0,3.93-1.77,3.93-3.93v0c0-2.16-1.77-3.93-3.93-3.93H78.36
			c-3.89,0-7.08-3.19-7.08-7.08v0C71.29,428.9,74.47,425.71,78.36,425.71L78.36,425.71z M82.05,457.57c2.6,0,4.72-2.12,4.72-4.72
			v-0.39c0-2.6-2.12-4.72-4.72-4.72l0,0c-2.59,0-4.72,2.12-4.72,4.72v0.39C77.33,455.44,79.45,457.57,82.05,457.57L82.05,457.57z"/>
		<g>
			<path class="st8" d="M616.49,59.47h-58.18c-4.22,0-7.68,3.46-7.68,7.68v36.7v2.34v20.17c0,0.35,0.2,0.66,0.53,0.79
				c0.33,0.13,0.68,0.06,0.94-0.19l13.09-13.09h51.31c4.23,0,7.68-3.46,7.68-7.68V67.15C624.17,62.93,620.71,59.47,616.49,59.47z"/>
			<path class="st6" d="M613.19,57h-58.18c-4.22,0-7.68,3.46-7.68,7.68v36.7v2.34v20.17c0,0.35,0.2,0.66,0.53,0.79
				c0.33,0.14,0.68,0.06,0.94-0.19l13.09-13.09h51.31c4.22,0,7.68-3.46,7.68-7.68V64.69C620.87,60.46,617.41,57,613.19,57z"/>
			<g>
				<path class="st7" d="M577.81,72.75c0.37,0,0.67-0.3,0.67-0.67s-0.3-0.67-0.67-0.67h-16.77c-0.37,0-0.66,0.3-0.66,0.67
					s0.3,0.67,0.66,0.67H577.81z"/>
				<path class="st7" d="M577.81,80.14c0.37,0,0.67-0.3,0.67-0.67c0-0.37-0.3-0.66-0.67-0.66h-8.91c-0.37,0-0.67,0.3-0.67,0.66
					c0,0.37,0.3,0.67,0.67,0.67H577.81z"/>
				<path class="st7" d="M577.81,85.89c0.37,0,0.67-0.3,0.67-0.67c0-0.37-0.3-0.67-0.67-0.67h-19.35c-0.37,0-0.67,0.3-0.67,0.67
					c0,0.37,0.3,0.67,0.67,0.67H577.81z"/>
				<path class="st7" d="M577.81,93.51c0.37,0,0.67-0.3,0.67-0.67c0-0.37-0.3-0.67-0.67-0.67h-17.83c-0.37,0-0.67,0.3-0.67,0.67
					c0,0.37,0.3,0.67,0.67,0.67H577.81z"/>
				<path class="st7" d="M555.35,92.18c-0.37,0-0.66,0.3-0.66,0.67c0,0.37,0.3,0.67,0.66,0.67h2.23c0.37,0,0.66-0.3,0.66-0.67
					c0-0.37-0.3-0.67-0.66-0.67H555.35z"/>
				<g>
					<path class="st7" d="M598.86,97.83c8.07,0,14.66-6.58,14.66-14.66c0-8.07-6.58-14.66-14.66-14.66
						c-8.07,0-14.66,6.58-14.66,14.66C584.2,91.25,590.78,97.83,598.86,97.83z"/>
					<path class="st2" d="M606.44,92.78c-2.09,1.65-4.72,2.63-7.58,2.63c-2.86,0-5.49-0.98-7.58-2.63c0.13-4.06,3.49-7.34,7.58-7.34
						l0,0C602.95,85.44,606.31,88.72,606.44,92.78L606.44,92.78z M598.86,72.75c3.01,0,5.45,2.44,5.45,5.45
						c0,3.01-2.44,5.45-5.45,5.45c-3.01,0-5.44-2.44-5.44-5.45C593.41,75.18,595.85,72.75,598.86,72.75z"/>
				</g>
			</g>
		</g>
		<path class="st2" d="M319.68,75.04c0-0.34,0.28-0.62,0.62-0.62s0.62,0.28,0.62,0.62v2.78c0,0.34-0.28,0.62-0.62,0.62
			s-0.62-0.28-0.62-0.62V75.04L319.68,75.04z M315.46,77.3c-0.24-0.24-0.24-0.63,0-0.88c0.24-0.24,0.63-0.24,0.88,0l1.97,1.97
			c0.24,0.24,0.24,0.63,0,0.88c-0.24,0.24-0.63,0.24-0.87,0L315.46,77.3L315.46,77.3z M314.08,81.88c-0.34,0-0.62-0.28-0.62-0.62
			c0-0.34,0.28-0.62,0.62-0.62h2.78c0.34,0,0.62,0.28,0.62,0.62c0,0.34-0.28,0.62-0.62,0.62H314.08L314.08,81.88z M316.34,86.1
			c-0.24,0.24-0.63,0.24-0.88,0c-0.24-0.24-0.24-0.63,0-0.88l1.97-1.97c0.24-0.24,0.63-0.24,0.87,0c0.24,0.24,0.24,0.63,0,0.88
			L316.34,86.1L316.34,86.1z M320.92,87.49c0,0.34-0.28,0.62-0.62,0.62s-0.62-0.28-0.62-0.62V84.7c0-0.34,0.28-0.62,0.62-0.62
			s0.62,0.28,0.62,0.62V87.49L320.92,87.49z M325.13,85.23c0.24,0.24,0.24,0.63,0,0.88c-0.24,0.24-0.63,0.24-0.88,0l-1.97-1.97
			c-0.24-0.24-0.24-0.63,0-0.88c0.24-0.24,0.63-0.24,0.88,0L325.13,85.23L325.13,85.23z M326.52,80.65c0.34,0,0.62,0.28,0.62,0.62
			c0,0.34-0.28,0.62-0.62,0.62h-2.78c-0.34,0-0.62-0.28-0.62-0.62c0-0.34,0.28-0.62,0.62-0.62H326.52L326.52,80.65z M324.26,76.43
			c0.24-0.24,0.63-0.24,0.88,0c0.24,0.24,0.24,0.63,0,0.88l-1.97,1.97c-0.24,0.24-0.63,0.24-0.88,0c-0.24-0.24-0.24-0.63,0-0.88
			L324.26,76.43z"/>
		<path class="st2" d="M586.49,138.44c-0.57,0-1.02-0.66-1.02-1.46c0-0.81,0.46-1.46,1.02-1.46h47.98c0.57,0,1.02,0.66,1.02,1.46
			c0,0.81-0.46,1.46-1.02,1.46H586.49L586.49,138.44z M579.98,135.51c0.57,0,1.02,0.66,1.02,1.46c0,0.81-0.46,1.46-1.02,1.46h-4
			c-0.57,0-1.02-0.66-1.02-1.46c0-0.81,0.46-1.46,1.02-1.46H579.98z"/>
		<path class="st2" d="M109.56,52.92c-0.57,0-1.03-0.66-1.03-1.46c0-0.81,0.46-1.46,1.03-1.46h47.98c0.57,0,1.02,0.66,1.02,1.46
			c0,0.81-0.46,1.46-1.02,1.46H109.56L109.56,52.92z M103.05,49.99c0.57,0,1.02,0.66,1.02,1.46c0,0.81-0.46,1.46-1.02,1.46h-4
			c-0.57,0-1.02-0.66-1.02-1.46c0-0.81,0.46-1.46,1.02-1.46H103.05z"/>
		<path class="st2" d="M395.51,279.38c0-0.34,0.28-0.62,0.62-0.62c0.34,0,0.62,0.28,0.62,0.62v2.78c0,0.34-0.28,0.62-0.62,0.62
			c-0.34,0-0.62-0.28-0.62-0.62V279.38L395.51,279.38z M391.29,281.64c-0.24-0.24-0.24-0.63,0-0.88c0.24-0.24,0.63-0.24,0.88,0
			l1.97,1.97c0.24,0.24,0.24,0.63,0,0.88c-0.24,0.24-0.63,0.24-0.88,0L391.29,281.64L391.29,281.64z M389.91,286.22
			c-0.34,0-0.62-0.28-0.62-0.62c0-0.34,0.28-0.62,0.62-0.62h2.78c0.34,0,0.62,0.28,0.62,0.62c0,0.34-0.28,0.62-0.62,0.62H389.91
			L389.91,286.22z M392.17,290.44c-0.24,0.24-0.63,0.24-0.88,0c-0.24-0.24-0.24-0.63,0-0.88l1.97-1.97c0.24-0.24,0.63-0.24,0.88,0
			c0.24,0.24,0.24,0.63,0,0.88L392.17,290.44L392.17,290.44z M396.75,291.82c0,0.34-0.28,0.62-0.62,0.62
			c-0.34,0-0.62-0.28-0.62-0.62v-2.78c0-0.34,0.28-0.62,0.62-0.62c0.34,0,0.62,0.28,0.62,0.62V291.82L396.75,291.82z M400.97,289.56
			c0.24,0.24,0.24,0.63,0,0.88c-0.24,0.24-0.63,0.24-0.88,0l-1.97-1.97c-0.24-0.24-0.24-0.63,0-0.88c0.24-0.24,0.63-0.24,0.88,0
			L400.97,289.56L400.97,289.56z M402.35,284.98c0.34,0,0.62,0.28,0.62,0.62c0,0.34-0.28,0.62-0.62,0.62h-2.78
			c-0.34,0-0.62-0.28-0.62-0.62c0-0.34,0.28-0.62,0.62-0.62H402.35L402.35,284.98z M400.09,280.77c0.24-0.24,0.63-0.24,0.88,0
			c0.24,0.24,0.24,0.63,0,0.88l-1.97,1.97c-0.24,0.24-0.63,0.24-0.88,0c-0.24-0.24-0.24-0.63,0-0.88L400.09,280.77z"/>
		<path class="st2" d="M116.89,214.46c0-0.34,0.28-0.62,0.62-0.62c0.34,0,0.62,0.28,0.62,0.62v2.78c0,0.34-0.28,0.62-0.62,0.62
			c-0.34,0-0.62-0.28-0.62-0.62V214.46L116.89,214.46z M112.67,216.72c-0.24-0.24-0.24-0.63,0-0.88c0.24-0.24,0.63-0.24,0.88,0
			l1.97,1.97c0.24,0.24,0.24,0.63,0,0.88c-0.24,0.24-0.63,0.24-0.88,0L112.67,216.72L112.67,216.72z M111.29,221.3
			c-0.34,0-0.62-0.28-0.62-0.62c0-0.34,0.28-0.62,0.62-0.62h2.78c0.34,0,0.62,0.28,0.62,0.62c0,0.34-0.28,0.62-0.62,0.62H111.29
			L111.29,221.3z M113.55,225.52c-0.24,0.24-0.63,0.24-0.88,0c-0.24-0.24-0.24-0.63,0-0.88l1.97-1.97c0.24-0.24,0.63-0.24,0.88,0
			c0.24,0.24,0.24,0.63,0,0.88L113.55,225.52L113.55,225.52z M118.13,226.9c0,0.34-0.28,0.62-0.62,0.62c-0.34,0-0.62-0.28-0.62-0.62
			v-2.78c0-0.34,0.28-0.62,0.62-0.62c0.34,0,0.62,0.28,0.62,0.62V226.9L118.13,226.9z M122.35,224.64c0.24,0.24,0.24,0.63,0,0.88
			c-0.24,0.24-0.63,0.24-0.88,0l-1.97-1.97c-0.24-0.24-0.24-0.63,0-0.88c0.24-0.24,0.63-0.24,0.88,0L122.35,224.64L122.35,224.64z
			 M123.73,220.06c0.34,0,0.62,0.28,0.62,0.62c0,0.34-0.28,0.62-0.62,0.62h-2.78c-0.34,0-0.62-0.28-0.62-0.62
			c0-0.34,0.28-0.62,0.62-0.62H123.73L123.73,220.06z M121.47,215.85c0.24-0.24,0.63-0.24,0.88,0c0.24,0.24,0.24,0.63,0,0.88
			l-1.97,1.97c-0.24,0.24-0.63,0.24-0.88,0c-0.24-0.24-0.24-0.63,0-0.88L121.47,215.85z"/>
		<path class="st2" d="M267.22,325.82c0-0.34,0.28-0.62,0.62-0.62c0.34,0,0.62,0.28,0.62,0.62v2.78c0,0.34-0.28,0.62-0.62,0.62
			c-0.34,0-0.62-0.28-0.62-0.62V325.82L267.22,325.82z M263.01,328.08c-0.24-0.24-0.24-0.63,0-0.88c0.24-0.24,0.63-0.24,0.88,0
			l1.97,1.97c0.24,0.24,0.24,0.63,0,0.88c-0.24,0.24-0.63,0.24-0.87,0L263.01,328.08L263.01,328.08z M261.62,332.66
			c-0.34,0-0.62-0.28-0.62-0.62c0-0.34,0.28-0.62,0.62-0.62h2.78c0.34,0,0.62,0.28,0.62,0.62c0,0.34-0.28,0.62-0.62,0.62H261.62
			L261.62,332.66z M263.88,336.88c-0.24,0.24-0.63,0.24-0.88,0c-0.24-0.24-0.24-0.63,0-0.87l1.97-1.97c0.24-0.24,0.63-0.24,0.87,0
			c0.24,0.24,0.24,0.63,0,0.88L263.88,336.88L263.88,336.88z M268.46,338.26c0,0.34-0.28,0.62-0.62,0.62
			c-0.34,0-0.62-0.28-0.62-0.62v-2.78c0-0.34,0.28-0.62,0.62-0.62c0.34,0,0.62,0.28,0.62,0.62V338.26L268.46,338.26z M272.68,336
			c0.24,0.24,0.24,0.63,0,0.87c-0.24,0.24-0.63,0.24-0.88,0l-1.97-1.97c-0.24-0.24-0.24-0.63,0-0.88c0.24-0.24,0.63-0.24,0.88,0
			L272.68,336L272.68,336z M274.06,331.42c0.34,0,0.62,0.28,0.62,0.62c0,0.34-0.28,0.62-0.62,0.62h-2.78
			c-0.34,0-0.62-0.28-0.62-0.62c0-0.34,0.28-0.62,0.62-0.62H274.06L274.06,331.42z M271.8,327.2c0.24-0.24,0.63-0.24,0.88,0
			c0.24,0.24,0.24,0.63,0,0.88l-1.97,1.97c-0.24,0.24-0.63,0.24-0.88,0c-0.24-0.24-0.24-0.63,0-0.88L271.8,327.2z"/>
		<g>
			<path class="st10" d="M523.29,250.55l0.62,1.15c0,0-0.02,0.96-2.71,1.49c-2.69,0.53-53.41,3.54-57.58,2.69
				c-4.18-0.85-6.55-3.03-7.33-4.57c-0.78-1.54,1.36-4.08,1.36-4.08S504.36,236.1,523.29,250.55z"/>
			<path class="st4" d="M462.34,235.15l-2.77,5.72c0,0,7.63,61.71,9.67,74.25c2.05,12.54,19.44,28.51,49.95,71.23l6.09,7.08
				c0,0,0.94,0.52,1.75-0.05c0.81-0.57,5.84-6.36,5.84-6.36s1-1.31-0.13-2.92c-1.13-1.62-35.1-65.06-40.21-76.07
				c0,0,7.77-68.82,5.25-76.77C495.26,223.31,462.34,235.15,462.34,235.15z"/>
			<path class="st3" d="M518.94,236.1l3.58,7.81c0,0-1.36,19.17-10.23,36.64c-8.87,17.47-16.71,35.14-18.41,38.37
				c-1.71,3.23,0,10.83-3.07,29.63c-3.07,18.8-8.27,53.09-8.52,55.27c-0.26,2.19-1.19,1.9-2.6,1.9c-1.41,0-4.94,0-6.69,0
				c-1.75,0-2.94-1.19-2.94-2.52c0-1.33,2.85-82.77,3.28-89.42c0.43-6.65,5.88-27.83,7.93-39.98c2.05-12.16,5.28-30.2-1.71-40.27
				C472.57,223.47,518.94,236.1,518.94,236.1z"/>
			<path class="st10" d="M478.35,119.4c0,0,1.79-2.92,5.14-3.41c3.35-0.49,15.75-0.39,19.34,1.87c3.59,2.26,1.62,6.69,1.62,6.69
				L478.35,119.4z"/>
			<path class="st10" d="M474.01,120.79c0,0-10.53,4.35-14.52,7.62c-3.99,3.27-22.49,49.11-25.77,57.61c0,0-1.29,3.35,1.47,5.54
				c2.76,2.19,7.38,2.11,10.05,0.32c2.67-1.78,11.51-16.05,11.51-16.05L474.01,120.79z"/>
			<path class="st6" d="M498.9,97.92l-0.25,5.76c0,0,0,12.27,0,13.6c0,1.33,1.12,3.43,3.12,3.46c5.05,6.36-0.53,12.69-4.27,13.27
				c-3.74,0.58-21.82-3.78-23.03-4.82c-0.85-0.73,4.57-7.28,4.07-9.39c0.39-0.11-0.06,0.01,0.34-0.12c1.03-0.34,2-0.82,2.63-1.51
				c1.97-2.15,1.88-11.74-0.09-14.25C479.45,101.41,498.9,97.92,498.9,97.92z"/>
			<path class="st9" d="M476.09,119.93c1.2-0.3,3.55-0.95,4.54-1.05c1.4,7.3,8.96,14.61,20.13,1.15
				c6.35,1.09,25.83,6.62,26.97,13.78c0,23.24-8.47,38.84-8.47,66.99c0,12.87,4.77,33.08,4.64,50.89
				c-11.03-1.34-59.57-10.16-67.62-0.39c-0.61-0.56-1.6-2.97-0.76-6.65C465.56,200.84,444.71,131.21,476.09,119.93z"/>
			<path class="st10" d="M521.38,222.44c1.26,9.44,2.6,19.69,2.53,29.25c-2.66-0.32-7.51-1.08-13.44-1.91
				c0.46-5.85-2.4-18.83-5.2-18.83c-3.3,0-40.04,0-43.67,0c-1.78,0-3.14,0.71-4.06,1.44c0.36-3.33,0.61-6.75,0.77-10.23
				c8.67-1.23,36.6-3.42,47.87-3.64C515.06,218.35,518.95,220.26,521.38,222.44z"/>
			<path class="st10" d="M478.32,119.41c0.9-0.24,1.79-0.46,2.31-0.52c0.97,6.99,8.89,13.25,20.13,1.15
				c1.25,0.23,2.64,0.36,4.14,0.91c-8.85,14.81-27.49,16-26.64-1.26C478.27,119.65,478.29,119.55,478.32,119.41z"/>
			<path class="st7" d="M490.47,129.75c0.15-0.21,0.43-0.26,0.64-0.12c0.21,0.15,0.26,0.43,0.12,0.64
				c-4.04,5.87-1.85,9.58,0.5,13.55c1.84,3.12,3.78,6.39,3.13,10.95c-0.04,0.25-0.27,0.43-0.52,0.39c-0.25-0.04-0.43-0.27-0.39-0.52
				c0.61-4.24-1.24-7.37-3.01-10.35C488.43,140.07,486.09,136.11,490.47,129.75z"/>
			<path class="st7" d="M484.68,129.77c0-0.26,0.2-0.47,0.46-0.47c0.26,0,0.46,0.2,0.47,0.46c0,0.05,0.41,17.28-10.92,16.51
				c-0.25-0.02-0.45-0.24-0.43-0.49c0.02-0.26,0.24-0.45,0.49-0.43C485.06,146.05,484.68,129.82,484.68,129.77z"/>
			<path class="st7" d="M474.25,146.91c0.63,0,1.14-0.51,1.14-1.14c0-0.63-0.51-1.14-1.14-1.14c-0.63,0-1.14,0.51-1.14,1.14
				C473.11,146.4,473.62,146.91,474.25,146.91z"/>
			<path class="st7" d="M494.33,156.31c0.63,0,1.14-0.51,1.14-1.14c0-0.63-0.51-1.14-1.14-1.14c-0.63,0-1.14,0.51-1.14,1.14
				C493.19,155.8,493.7,156.31,494.33,156.31z"/>
			<path class="st11" d="M510.78,86.77c0.15,0.02,0.29,0.04,0.44,0.07l0,0l0,0c2.67,0.56,4.7,2.9,4.76,5.75
				c0.06,3.31-2.57,6.04-5.88,6.1c-3.31,0.06-6.04-2.57-6.11-5.88c-0.04-1.92,0.84-3.65,2.22-4.77c-0.15,1.77,0.13,3.96,2.39,4.18
				l-0.07-3.46C508.52,87.37,509.82,86.73,510.78,86.77z"/>
			<path class="st11" d="M467.53,86.77c-0.15,0.02-0.29,0.04-0.44,0.07l0,0l0,0c-2.67,0.56-4.7,2.9-4.76,5.75
				c-0.06,3.31,2.57,6.04,5.88,6.1c3.31,0.06,6.04-2.57,6.11-5.88c0.04-1.92-0.84-3.65-2.22-4.77c0.15,1.77-0.13,3.96-2.39,4.18
				l0.07-3.46C469.8,87.37,468.49,86.73,467.53,86.77z"/>
			<path class="st5" d="M489.16,56.84L489.16,56.84c11.28,0,20.52,9.23,20.52,20.52v18.66c0,11.28-9.23,20.52-20.52,20.52l0,0
				c-11.28,0-20.51-9.23-20.51-20.52V77.35C468.64,66.07,477.88,56.84,489.16,56.84z"/>
			<path class="st12" d="M505.3,64.72c2.74,3.49,4.38,7.88,4.38,12.63v18.66c0,11-8.78,20.05-19.68,20.5
				c12.94-3.47,15.48-13.53,15.48-16.91c0-3.38,0-10.82,0-10.82c-2.88-0.77-3.52-5.11-3.52-8.96c0-3.85-4.14-3.66-7.9-3.66
				c-3.76,0-19.17,0-19.17,0c-5.66-8.78,10.12-15.53,10.12-15.53S495.77,62.4,505.3,64.72z"/>
			<path class="st7" d="M494.44,101.59c0.12,2.93-2.17,5.4-5.1,5.51c-2.93,0.12-5.4-2.17-5.51-5.1h0.01
				c-0.02-0.5,0.38-0.93,0.88-0.95l8.76-0.34C493.98,100.69,494.41,101.09,494.44,101.59L494.44,101.59z"/>
			<path class="st7" d="M492.63,105.8c-0.88,0.77-2.02,1.26-3.28,1.31c-1.03,0.04-2-0.21-2.83-0.69c0.37-1.11,1.52-1.97,2.96-2.08
				C490.83,104.23,492.06,104.84,492.63,105.8z"/>
			<path class="st7" d="M484.6,101.07l8.23-0.32c0.17,0.9-0.22,1.84-0.82,2.07c-0.74,0.27-6.7,0.35-7.14-0.1
				C484.66,102.49,484.6,101.76,484.6,101.07z"/>
			<path class="st11" d="M477.53,97.03c1.49-0.03,2.72,1.16,2.75,2.65c0.03,1.49-1.16,2.72-2.65,2.75
				c-1.49,0.03-2.72-1.16-2.75-2.65C474.85,98.29,476.04,97.06,477.53,97.03z"/>
			<path class="st11" d="M500.73,96.59c1.49-0.03,2.72,1.16,2.75,2.65c0.03,1.49-1.16,2.72-2.65,2.75
				c-1.49,0.03-2.72-1.16-2.75-2.65C498.06,97.85,499.24,96.61,500.73,96.59z"/>
			<path class="st4" d="M501.87,87.02c0.36,0.18,0.79,0.03,0.97-0.33c0.18-0.36,0.04-0.8-0.32-0.98c-1.93-0.99-4.51-1.11-6.41,0.03
				c-0.34,0.21-0.46,0.66-0.25,1c0.21,0.34,0.66,0.46,1,0.25C498.39,86.08,500.31,86.28,501.87,87.02z"/>
			<path class="st4" d="M475.67,87.03c1.56-0.74,3.48-0.95,5.01-0.03c0.34,0.21,0.79,0.09,1-0.25c0.2-0.34,0.09-0.79-0.25-1
				c-1.89-1.14-4.48-1.02-6.41-0.03c-0.36,0.18-0.5,0.62-0.33,0.98C474.88,87.06,475.32,87.2,475.67,87.03z"/>
			<path class="st4" d="M477.9,89.48L477.9,89.48c-0.97,0-1.77,0.8-1.77,1.77v2.31c0,0.97,0.8,1.77,1.77,1.77l0,0
				c0.97,0,1.77-0.8,1.77-1.77v-2.31C479.67,90.28,478.88,89.48,477.9,89.48z"/>
			<path class="st4" d="M499.64,89.48L499.64,89.48c0.97,0,1.77,0.8,1.77,1.77v2.31c0,0.97-0.8,1.77-1.77,1.77l0,0
				c-0.97,0-1.77-0.8-1.77-1.77v-2.31C497.87,90.28,498.66,89.48,499.64,89.48z"/>
			<path class="st3" d="M497.53,73.74c3.89,0,6.48,1.05,6.48,5.46s0.84,6.02,3.65,6.02c0,0,0,1.53,0,3.46
				c0,1.93,0.19,3.89,2.01,3.89c0-4.16,1.27-5.8,1.27-5.8s0-5.57,0-10.44c0-4.87-1.37-11.41-7.76-15.9
				c-8.27-5.81-19.79-5.81-28.05,0c-6.39,4.49-7.76,11.03-7.76,15.9c0,4.87,0,10.44,0,10.44s1.27,1.64,1.27,5.8
				c1.83,0,2.01-1.96,2.01-3.89c0-1.93,0-3.46,0-3.46c2.81,0,3.65-1.61,3.65-6.02s4.27-5.46,6.48-5.46
				C486.37,73.74,493.63,73.74,497.53,73.74z"/>
			<path class="st4" d="M503.47,76.31c0,0,5.94-4.41,7.09-7.98c1.16-3.57-2.15-8.14-3.36-9.09c-1.21-0.95-2.36,0.95-2.36,0.95
				s-5.83-5.51-6.51-8.82c-0.68-3.31-3.52-1.58-3.52-1.58s0.73-6.41-3.05-7.25c-3.78-0.84-14.97,3.26-19.17,15.44
				c0,0-0.58-2-1.79-2.26c-1.21-0.26-10.14,10.92,2.99,19.75c0.44,0.3,0.88,0.57,1.33,0.83c1.35-2,4.05-2.56,5.66-2.56
				c5.58,0,12.85,0,16.74,0C500.37,73.74,502.51,74.3,503.47,76.31L503.47,76.31z"/>
			<path class="st13" d="M510.49,64.67c-0.15-0.52-0.34-1.03-0.56-1.51c-7.07,3.39-32.19,2.85-28.38-17.25
				c-2.31,1.63-4.6,3.87-6.46,6.82C477.01,67.9,500.3,70.87,510.49,64.67z"/>
			<path class="st10" d="M525.11,129.75c0,0,5.33,3.55,10.45,9.01c5.11,5.46,10.74,31.88,11.08,34.27
				c0.34,2.39-10.57,7.33-14.32,7.33C525.62,180.35,502.72,134.94,525.11,129.75z"/>
			<path class="st14" d="M549.04,142.41H420.15c-1.97,0-3.58,1.61-3.58,3.58v79.45c0,1.97,1.61,3.58,3.58,3.58h128.89
				c1.97,0,3.58-1.61,3.58-3.58v-79.45C552.62,144.03,551.01,142.41,549.04,142.41z"/>
			<path class="st15" d="M544.51,142.41H420.15c-1.97,0-3.58,1.61-3.58,3.58v71.87h124.35c1.97,0,3.58-1.61,3.58-3.58V142.41z"/>
			<path class="st16" d="M549.04,142.41H420.16c-1.97,0-3.58,1.61-3.58,3.58v3.05L476,203.93c9.6,8.87,6.76,9.65,16.12,1
				l60.51-55.89v-3.05C552.62,144.03,551.01,142.41,549.04,142.41z"/>
			<path class="st16" d="M416.57,222.01v3.43c0,1.97,1.61,3.58,3.58,3.58h128.89c1.97,0,3.58-1.61,3.58-3.58v-3.43l-60.97-51.63
				c-8.78-7.43-6.12-6.76-15.12,0.86L416.57,222.01z"/>
			<path class="st14" d="M416.66,226.21c0.36,1.6,1.79,2.81,3.5,2.81h128.89c1.7,0,3.14-1.21,3.5-2.81l-61.57-52.14
				c-7.93-6.72-5.53-6.11-13.67,0.78L416.66,226.21z"/>
			<path class="st15" d="M542.34,217.57l-51.36-43.5c-7.93-6.72-5.53-6.11-13.67,0.78l-50.79,43.01h114.41
				C541.43,217.86,541.9,217.76,542.34,217.57z"/>
			<path class="st16" d="M509,189.34l-18.03-15.26c-7.93-6.72-5.53-6.11-13.67,0.78l-17.11,14.48L476,203.93
				c9.6,8.87,6.76,9.65,16.12,1L509,189.34z"/>
			<path class="st2" d="M549.04,142.41H420.16c-1.18,0-2.24,0.58-2.89,1.48l60.04,55.46c8.14,7.52,5.73,8.18,13.67,0.85l60.96-56.31
				C551.28,143,550.23,142.41,549.04,142.41z"/>
			<path class="st4" d="M471.99,60.61c0.01,0.2,0.19,0.35,0.38,0.34c0.2-0.01,0.35-0.19,0.34-0.39c0-0.03-0.83-10.26,9.62-16.03
				c0.18-0.1,0.24-0.32,0.14-0.49c-0.1-0.17-0.32-0.24-0.49-0.14C471.12,49.89,471.99,60.58,471.99,60.61z"/>
			<path class="st4" d="M505.92,61.68c0.13,0.15,0.36,0.16,0.51,0.03c0.15-0.13,0.16-0.36,0.03-0.51
				c-0.02-0.02-5.64-6.31-6.09-10.29c-0.02-0.2-0.2-0.34-0.4-0.32c-0.2,0.02-0.34,0.2-0.32,0.4
				C500.13,55.2,505.91,61.66,505.92,61.68z"/>
			<path class="st9" d="M536.69,402.35c0,0-12.21,17.34-14.11,16.94c0,0-1.13-0.84-1.88-1.4c-0.75-0.56-1.25-2.14-0.38-4.78
				c0.87-2.64,2.87-8.16,3.41-9.91c0.54-1.75-1.52-9.46-1.71-10.48c-0.19-1.02,3.74-2.18,4.49-2.49s1.27,0.65,1.99,1.63
				C529.24,392.85,536.69,402.35,536.69,402.35z"/>
			<path class="st17" d="M525.44,421.43l20.28-27.17c0.24-0.32,0.17-0.78-0.15-1.02l-1.69-1.26c-0.32-0.24-0.78-0.17-1.02,0.15
				l-20.28,27.17c-0.24,0.32-0.17,0.78,0.15,1.02l1.69,1.26C524.74,421.82,525.2,421.76,525.44,421.43z"/>
			<path class="st17" d="M525.44,421.43l6.89-9.23c0.24-0.32,0.17-0.78-0.15-1.02l-1.69-1.26c-0.32-0.24-0.78-0.17-1.02,0.15
				l-6.89,9.23c-0.24,0.32-0.17,0.78,0.15,1.02l1.69,1.26C524.74,421.82,525.2,421.76,525.44,421.43z"/>
			<path class="st18" d="M525.19,402.54c0.4,0.15,2.67,0.53,2.63,1.42c-0.04,0.88-0.01,3.83-0.8,4.89
				c-0.79,1.06-2.45,3.28-4.54,6.08c-2.08,2.79-2.58,1.42-2.58,1.42c0.12,0.77,0.42,1.29,0.79,1.56c0.75,0.56,1.88,1.4,1.88,1.4
				l20.28-27.17c0,0-0.48-2.15-3.62-4.49c-3.14-2.35-4.84-3.85-5.68-3.77c-0.84,0.08-0.82,0.59-0.82,0.59
				c0.25,3.48-2.97,5.05-4.69,5.85c-0.18,0.08-0.36,0.16-0.54,0.23c-1.46,0.6-2.53,0.83-2.71,2.21c-0.2,1.54-0.33,7.35-0.37,8.28
				C524.39,401.94,524.79,402.38,525.19,402.54z"/>
			<path class="st10" d="M521.17,418.24l1.41,1.05l20.28-27.17c0,0-0.48-2.15-3.62-4.49c-3.14-2.35-4.84-3.85-5.68-3.77
				c1.05,0.69,1.78,2.07,1.08,3.01c-0.7,0.94-2.56,3.43-4.04,5.41c-1.48,1.99-0.72,3.18-0.72,3.18s1.24,2.49,2.1,4.26
				c0.86,1.77,0.93,3.69,0.27,4.58c-0.66,0.88-8.67,11.62-9.75,13.07C522.03,417.98,521.56,418.2,521.17,418.24z"/>
			<path class="st7" d="M525.31,393.59c0.17-0.05,0.25-0.2,0.19-0.34c-0.06-0.14-0.24-0.21-0.41-0.17l-2.55,0.75l-0.29-0.09
				l0.17,0.7l0.12-0.04l2.53,0.8c0.17,0.05,0.35-0.02,0.41-0.16c0.06-0.14-0.02-0.29-0.19-0.35l-1.82-0.58L525.31,393.59
				L525.31,393.59z M523.59,399.98c-0.03-0.2-0.07-0.4-0.1-0.61l1.77,0.56c0.16,0.05,0.25,0.21,0.19,0.35
				c-0.06,0.14-0.24,0.21-0.41,0.16L523.59,399.98L523.59,399.98z M523.48,399.34c-0.03-0.18-0.07-0.36-0.1-0.54l1.67-0.5
				c0.17-0.05,0.35,0.03,0.41,0.17c0.06,0.14-0.03,0.29-0.19,0.34L523.48,399.34L523.48,399.34z M523.05,397.19
				c-0.06-0.29-0.12-0.57-0.18-0.84l2.21-0.65c0.17-0.05,0.35,0.03,0.41,0.17c0.06,0.14-0.03,0.29-0.19,0.34l-1.83,0.54l1.82,0.58
				c0.17,0.05,0.25,0.21,0.19,0.35c-0.06,0.14-0.24,0.21-0.41,0.16L523.05,397.19z"/>
			<path class="st10" d="M473.95,421.62h6.88c0.74,0,1.35-0.61,1.35-1.35v-13.22c0-0.74-0.61-1.35-1.35-1.35h-6.88
				c-0.74,0-1.35,0.61-1.35,1.35v13.22C472.6,421.02,473.2,421.62,473.95,421.62z"/>
			<path class="st9" d="M479.18,405.51c0,0,0.66-2.03,0.78-2.38c0.12-0.35,0.47-1.66-1.3-1.66c-1.78,0-3.15,0-4.31,0
				c-1.16,0-2.99,0.41-3.71,2.6c-0.72,2.19-2,6.11-2.44,7.45c-0.44,1.34-6.71,4.66-7.64,5.66c-0.93,1-1.24,2.14-1.18,2.38
				c0.06,0.24,12.53,1.64,14.27,0.84c1.74-0.8,3.65-8.41,3.65-8.41L479.18,405.51z"/>
			<path class="st18" d="M473.55,422.09l1.26-0.47c0,0,0.61-0.44,0.89-1.29c0.28-0.85,0.7-2.13,0.92-2.81c0.22-0.68,0.99-0.8,1.38-2
				c0.39-1.21,2.23-6.82,2.73-8.37c0.51-1.55-1.09-2.49-2.04-3.4c-0.95-0.92-2.97-0.07-3.56,1.74c-0.59,1.81-1.26,3.84-1.75,5.36
				c-0.5,1.52-0.45,2.19,0.36,2.93c0.81,0.74,1.38,1.32,1.63,1.52c0.25,0.2-0.22,1.16-0.85,1.92c-0.63,0.76-2.5,2.39-5.67,2.39
				c-3.17,0-4.58,0-6.17,0c-1.58,0-1.88-1-1.42-2.43c0.47-1.43,6.89-2.5,7.95-5.74c1.06-3.25,1.78-5.45,2.02-6.18
				c0.24-0.73-0.26-0.97-0.48-1.14c-0.21-0.17-0.71,0.02-2,1.31c-1.29,1.29-1.35,2.3-2.09,4.54c-0.73,2.25-2.73,4.26-5.04,5.8
				c-2.31,1.54-4.41,2.77-5.41,5.86C455.2,424.71,471.37,425.21,473.55,422.09z"/>
			<path class="st10" d="M478.31,414.56l2.42-7.41c0.51-1.55-1.09-2.49-2.04-3.4c-0.07-0.07-0.15-0.13-0.23-0.18
				c0.03,0.03,0.61,0.63,0.17,1.97c-0.45,1.38-0.91,2.78-1.43,4.38C476.71,411.44,476.6,412.85,478.31,414.56L478.31,414.56z
				 M469.68,404.58c-0.25,0.21-0.55,0.48-0.92,0.85c-1.29,1.29-1.35,2.3-2.09,4.54c-0.38,1.15-1.08,2.24-1.99,3.23l0,0
				c0,0,2.72-2.5,3.24-3.43C468.22,409.23,469.05,406.64,469.68,404.58L469.68,404.58z M459.4,417.3c-1.37,1.05-2.52,2.28-3.19,4.33
				c-0.89,2.71,11.52,3.43,16,1.44l-3.51,0.62l2.25-1.72c0,0-0.09-1.52-1.18-1.52c-1.09,0-7.75,0-8.94,0
				C459.64,420.44,458.54,419.92,459.4,417.3z"/>
			<path class="st17" d="M473.48,425.71h-18.6c-0.46,0-0.71-0.38-0.56-0.84l0.79-2.42c0.15-0.46,0.65-0.84,1.11-0.84h18.6
				c0.46,0,0.71,0.38,0.56,0.84l-0.79,2.42C474.44,425.33,473.94,425.71,473.48,425.71z"/>
			<path class="st17" d="M480.64,425.71h-12.87c-0.46,0-0.71-0.38-0.56-0.84l0.79-2.42c0.15-0.46,0.65-0.84,1.11-0.84h12.87
				c0.46,0,0.71,0.38,0.56,0.84l-0.79,2.42C481.6,425.33,481.1,425.71,480.64,425.71z"/>
			<path class="st7" d="M470.25,405.37c-0.15-0.05-0.19-0.21-0.08-0.36c0.11-0.15,0.32-0.22,0.48-0.17l2.37,0.81l2.9-0.81
				c0.19-0.05,0.35,0.02,0.37,0.17c0.01,0.14-0.13,0.3-0.31,0.36l-2.08,0.58l1.71,0.58c0.15,0.05,0.19,0.21,0.08,0.36
				c-0.11,0.14-0.32,0.22-0.48,0.17l-2.37-0.81l-2.9,0.81c-0.19,0.05-0.35-0.02-0.37-0.17c-0.01-0.15,0.13-0.31,0.31-0.36l2.08-0.58
				L470.25,405.37L470.25,405.37z M474.15,410.27c0.19-0.05,0.35,0.02,0.37,0.17c0.01,0.15-0.13,0.31-0.31,0.36l-2.08,0.58
				l1.71,0.58c0.15,0.05,0.19,0.21,0.08,0.36c-0.11,0.15-0.32,0.22-0.48,0.17l-2.37-0.81l-2.9,0.81c-0.19,0.05-0.35-0.02-0.37-0.17
				c-0.02-0.15,0.13-0.31,0.32-0.36l2.08-0.58l-1.71-0.58c-0.15-0.05-0.19-0.21-0.08-0.36c0.11-0.14,0.32-0.22,0.48-0.17l2.37,0.81
				L474.15,410.27L474.15,410.27z M475.04,407.56c0.19-0.05,0.35,0.02,0.37,0.17c0.01,0.14-0.13,0.31-0.32,0.36l-2.08,0.58l1.7,0.58
				c0.15,0.05,0.19,0.21,0.08,0.36c-0.11,0.15-0.32,0.22-0.48,0.17l-2.37-0.81l-2.9,0.81c-0.19,0.05-0.35-0.02-0.37-0.17
				c-0.01-0.14,0.13-0.3,0.31-0.36l2.08-0.58l-1.71-0.58c-0.15-0.05-0.19-0.21-0.08-0.36c0.11-0.14,0.32-0.22,0.48-0.17l2.37,0.81
				L475.04,407.56z"/>
			<path class="st19" d="M487.35,95.84c0,0-1.2,1.41-1.44,2.21c-0.24,0.81,0.42,1.53,1.26,1.29c0.84-0.24,1.14-2.75,1.05-3.53
				C488.12,95.03,487.35,95.84,487.35,95.84z"/>
			<path class="st20" d="M525.26,156.74l-5.68,5.24l-18.1,16.72l-2.42,2.23l-15.37,14.19c-2.96,2.73-4.48,4.35-5.64,4.92
				c7.24,6.85,5.24,7.24,12.91,0.15l14.75-13.63l2.41-2.23l14.21-13.12l1.11-1.02l18.34-16.94l2.71-2.5l7.43-6.86
				c-0.65-0.89-1.71-1.48-2.89-1.48h-8.27l-2.07,1.91L525.26,156.74z"/>
			<g>
				<path class="st21" d="M449,228.98c-0.21-3.34-0.41-6.62-1.08-7.34c-0.67-0.72-2.31-0.72-2.92,0.26
					c-0.62,0.98-0.62,0.92-0.62,0.92s-0.47-1.64-2.05-1.79c-1.59-0.15-2.03,2.1-2.03,2.1s-1.02-2.51-2.41-1.85
					c-1.39,0.67-1.54,2.16-1.54,2.16s-1.44-2.44-2.39-0.46c-0.95,1.98-1.49,5.49,0.36,8.57c0.37,0.61,0.85,0.9,1.41,0.78
					c0.24-0.05,0.78-0.4,1.1-0.5c0.49,0.65,1.01,1.4,1.92,1.25c0.91-0.15,1.21-0.67,1.21-0.67c1.5,1.73,2.94,2.03,4.08,0.56
					c3.83,2.13,6.4-0.07,7.93-3.95L449,228.98z"/>
				<path class="st11" d="M449,228.98c0.13,1.2,0.15,2.89,0.1,4.07c2.16-1.25,2.9-4.07,2.9-4.07H449z"/>
			</g>
			<g>
				<path class="st21" d="M527.71,228.98c-0.21-3.34-0.41-6.62-1.08-7.34c-0.67-0.72-2.31-0.72-2.93,0.26
					c-0.62,0.98-0.62,0.92-0.62,0.92s-0.46-1.64-2.06-1.79c-1.59-0.15-2.03,2.1-2.03,2.1s-1.02-2.51-2.41-1.85
					c-1.39,0.67-1.54,2.16-1.54,2.16s-1.44-2.44-2.39-0.46c-0.95,1.98-1.49,5.49,0.36,8.57c0.37,0.61,0.85,0.9,1.41,0.78
					c0.24-0.05,0.78-0.4,1.1-0.5c0.49,0.65,1.01,1.4,1.92,1.25c0.91-0.15,1.21-0.67,1.21-0.67c1.5,1.73,2.94,2.03,4.08,0.56
					c3.82,2.13,6.4-0.07,7.93-3.95L527.71,228.98z"/>
				<path class="st11" d="M527.71,228.98c0.13,1.2,0.15,2.89,0.1,4.07c2.16-1.25,2.9-4.07,2.9-4.07H527.71z"/>
			</g>
		</g>
	</g>
</g>
<g id="DESIGNED_BY_FREEPIK">
</g>
</svg>
