<?xml version="1.0" encoding="utf-8"?>
<!-- Generator: Adobe Illustrator 24.1.2, SVG Export Plug-In . SVG Version: 6.00 Build 0)  -->
<svg version="1.1" id="Capa_1" xmlns="http://www.w3.org/2000/svg" xmlns:xlink="http://www.w3.org/1999/xlink" x="0px" y="0px"
	 viewBox="0 0 425.2 425.2" style="enable-background:new 0 0 425.2 425.2;" xml:space="preserve">
<style type="text/css">
	.st0{fill:#6078BA;}
	.st1{fill:#B6E1F8;}
	.st2{fill:#58C3E7;}
	.st3{fill:#83D0F3;}
	.st4{fill:#566BA5;}
</style>
<g>
	<path class="st1" d="M98.62,303.47c12.97-20.06,33.35-25.5,33.35-25.5l48.84-18.1h46.62l48.82,18.1c0,0,20.38,5.44,33.35,25.5
		H98.62z"/>
	<path class="st2" d="M267.79,398.49h75.45c0-12.89-0.84-31.25-0.84-31.25c-4.43-77.15-60.66-89.28-60.66-89.28
		c-43.84-10.62-19.95,57.19-19.95,57.19C260.64,351.5,263.08,373.49,267.79,398.49z"/>
	<g>
		<rect x="172.12" y="214.08" class="st1" width="64" height="62.4"/>
	</g>
	<g>
		<path class="st3" d="M236.12,243.08v-29h-64v14.37C190.37,243.64,212.36,245.57,236.12,243.08z"/>
	</g>
	<path class="st0" d="M304.25,398.49c1.23-33.64,0.85-42.89,0.55-54.36c-0.67-25.56-6.13-47.17-22.98-66.15
		c-0.04-0.01-0.08-0.02-0.08-0.02l-45.63-14.88c0,0,9.6,16.79-32.34,16.79c0,0-27.63-1.08-31.66-16.79l-46.33,14.88
		c0,0-39.61,9.74-46.4,51.43l23.29,42.81l-0.83,26.28H304.25z"/>
	<g class="head">
		<g>
			<path class="st0" d="M107.14,80.94c0,0,6.26-5.74,18.18,4.65l5.54-8.62C130.87,76.97,117.47,66.38,107.14,80.94z"/>
			<path class="st0" d="M128.98,55.77c0,0-7.4,9.19,3.26,19.66l-7.19,7.26C125.05,82.69,108.57,62.49,128.98,55.77z"/>
		</g>
		<path class="st0" d="M285.85,136.09c1.82-14.35-1.24-28.1-1.09-42.24c0.1-9.49-1.75-23.82-13.55-25.02
			c-16.35-1.67-21.4,26.57-22.36,38.8c-1.33,16.87,2.85,35.1,6.11,51.61c1.17,5.96,1.05,17.88,7.76,20.76
			c5.74,2.46,11.61-3.34,14.54-7.65C284.33,161.94,284.34,148.1,285.85,136.09z"/>
		<path class="st1" d="M273.73,205.4c-6.47,25.31-17.86,32.29-17.86,32.29l-15.28,2.98c-8.79-1.11-23.95-4.7-23.95-4.7
			c-34.9-11.87-45.01-15.07-50.43-28.33c-0.23-0.56-27.51-95.27-27.51-95.27c-4.46-48.75,46.56-58.89,54.26-60.16
			c7.62-1.76,56.2-15.26,70.55,31.54C263.51,83.74,284.71,137.96,273.73,205.4z"/>
		<path class="st0" d="M289.77,36.57c2.76,15.13,0.18,36.08-11.55,45.74c-12.73,10.49-23.66,7.64-38.99,11.04
			c-15.93,3.54-32.23,4.94-48.24,8.04c-11.21,2.17-24.16,3.41-29.32,15.31c-6.82,15.72-8.17,36.23-3.57,51.55
			c3.82,12.76,4.99,25.17,9.19,41.78c-14.48-11.98-25.72-29.45-25.72-29.45c-7.21-12.69-7.21-12.69-15.35-34.77
			c-4.77-12.94-8.89-24.32-9.51-37.67c-0.79-17.21,7.56-24.71,16.74-40.52c8.63-14.86,20.75-25.14,36.55-29.85
			c0,0,80.1,4.5,78.59-13.8c0,0,19.24,4.91,15.58,17.7c0,0,20.13-3.68,15.86-17.7C280.03,23.97,288.17,27.8,289.77,36.57z"/>
		<path class="st1" d="M161.32,164.96c0,0-8.63-18.8-22.19-7.66c0,0-6.17,4.82,1.43,17.4c0,0,11.04,18.08,24.27,8.06L161.32,164.96z
			"/>
		<path class="st0" d="M159.96,121.13c0,0,0.06,33.65,6.24,51.5l-6.56,1.3c0,0-3.45-23.08-15.33-23.35L159.96,121.13z"/>
	</g>
	<path class="st2" d="M144.1,398.49c0,0-70.48,0-70.52,0c0.02,0,0.25-16.74,0.28-17.93c0.53-16.46,1.57-33.04,4.54-49.27
		c4.24-23.19,15.5-43.76,40.29-49.65c11.35-2.7,21.43,4.17,27.58,13.5C146.26,295.16,157.49,308.99,144.1,398.49z"/>
</g>
</svg>
